<svg xmlns="http://www.w3.org/2000/svg" xmlns:xlink="http://www.w3.org/1999/xlink" class="icon" viewBox="0 0 1024 1024" width="200" height="200"><defs><style type="text/css"></style></defs><path d="M761.856 458.752C761.856 252.842667 590.961778 85.333333 380.928 85.333333S0 252.842667 0 458.752c0 104.96 44.202667 203.406222 122.140444 274.062222l-70.826667 101.518222c-6.883556 9.898667-6.798222 23.04 0.199111 32.824889 5.432889 7.594667 14.108444 11.889778 23.125333 11.889778 2.616889 0 5.262222-0.369778 7.850667-1.109333l201.784889-57.884444c31.374222 8.021333 63.829333 12.117333 96.625778 12.117333C590.961778 832.170667 761.856 664.632889 761.856 458.752zM380.928 775.281778c-30.378667 0-60.416-4.096-89.230222-12.145778-5.063111-1.393778-10.410667-1.450667-15.502222 0.056889l-132.380444 37.973333 39.822222-57.088c8.618667-12.373333 6.087111-29.297778-5.745778-38.627556C100.977778 644.977778 56.888889 555.064889 56.888889 458.752 56.888889 284.216889 202.24 142.222222 380.928 142.222222s324.039111 141.994667 324.039111 316.529778S559.616 775.281778 380.928 775.281778z" fill="#515151"></path><path d="M917.930667 804.010667C985.6 742.456889 1024 656.782222 1024 565.418667c0-144.583111-95.800889-272.327111-232.96-310.670222-14.876444-4.209778-30.833778 4.608-35.043556 19.712-4.209778 15.132444 4.608 30.833778 19.712 35.043556C888.376889 341.020444 967.111111 446.264889 967.111111 565.418667c0 81.720889-37.404444 158.037333-102.656 209.322667-10.837333 8.533333-13.994667 23.552-7.537778 35.726222l25.799111 48.469333-97.763556-34.645333c-5.461333-1.934222-11.463111-2.190222-17.152-0.597333-24.576 6.826667-50.090667 10.296889-75.776 10.296889-47.928889 0-66.304-1.422222-101.063111-18.346667-14.136889-6.883556-31.146667-0.967111-38.030222 13.141333-6.855111 14.108444-0.995556 31.146667 13.141333 38.030222 47.132444 22.954667 77.084444 24.064 125.952 24.064 27.790222 0 55.381333-3.384889 82.204444-10.069333l158.464 56.177778C935.822222 938.126222 939.036444 938.666667 942.222222 938.666667c8.106667 0 16.042667-3.498667 21.560889-9.898667 7.68-8.874667 9.045333-21.560889 3.555556-31.914667L917.930667 804.010667z" fill="#515151"></path><path d="M398.222222 227.555556c-28.928 0-56.746667 8.533333-80.526222 24.718222C279.068444 278.556444 256 321.905778 256 368.270222c0 15.701333 12.743111 28.444444 28.444444 28.444444s28.444444-12.743111 28.444444-28.444444c0-27.505778 13.767111-53.304889 36.807111-68.977778C363.975111 289.592889 380.757333 284.444444 398.222222 284.444444c47.047111 0 85.333333 37.603556 85.333333 83.825778 0 16.725333-5.006222 32.881778-14.449778 46.705778-15.900444 23.239111-42.410667 37.12-72.192 37.148444-28.586667 1.336889-57.543111 20.252444-57.543111 53.873778L339.370667 568.888889c0 15.729778 12.743111 28.444444 28.444444 28.444444s28.444444-12.714667 28.444444-28.444444l0-59.278222c0.967111-0.312889 1.820444-0.568889 1.991111-0.625778 47.274667 0 91.306667-23.125333 117.816889-61.866667C531.996444 423.793778 540.444444 396.515556 540.444444 368.270222 540.444444 290.673778 476.643556 227.555556 398.222222 227.555556z" fill="#515151"></path><path d="M367.530667 654.222222m-28.444444 0a1 1 0 1 0 56.888889 0 1 1 0 1 0-56.888889 0Z" fill="#515151"></path></svg>