<svg xmlns="http://www.w3.org/2000/svg" xmlns:xlink="http://www.w3.org/1999/xlink" class="icon" viewBox="0 0 1024 1024" width="200" height="200"><defs><style type="text/css"></style></defs><path d="M198.128849 21.495398L511.690198 335.787659l313.561348-314.292261a73.091223 73.091223 0 1 1 103.789537 103.789537l-365.456117 365.456117a73.091223 73.091223 0 0 1-103.789537 0l-365.456117-365.456117A73.091223 73.091223 0 0 1 198.128849 21.495398z m0 511.638564L511.690198 847.426222l313.561348-314.29226a73.091223 73.091223 0 1 1 103.789537 103.789537l-365.456117 365.456117a73.091223 73.091223 0 0 1-103.789537 0l-365.456117-365.456117a73.091223 73.091223 0 1 1 103.789537-103.789537z" fill="#35a9d9"></path></svg>