<svg xmlns="http://www.w3.org/2000/svg" xmlns:xlink="http://www.w3.org/1999/xlink" class="icon" viewBox="0 0 1024 1024" width="200" height="200"><defs><style type="text/css"></style></defs><path d="M128 64a64 64 0 0 0-64 64v576a64 64 0 1 0 128 0V128a64 64 0 0 0-64-64z m768 0a64 64 0 0 0-64 64v576a64 64 0 1 0 128 0V128a64 64 0 0 0-64-64zM320 448a64 64 0 0 1 128 0v256a64 64 0 1 1-128 0V448z m320-192a64 64 0 0 0-64 64v384a64 64 0 1 0 128 0V320a64 64 0 0 0-64-64z" fill="#515151"></path><path d="M64 832m64 0l768 0q64 0 64 64l0 0q0 64-64 64l-768 0q-64 0-64-64l0 0q0-64 64-64Z" fill="#515151"></path></svg>