<svg xmlns="http://www.w3.org/2000/svg" xmlns:xlink="http://www.w3.org/1999/xlink" class="icon" viewBox="0 0 1024 1024" width="200" height="200"><defs><style type="text/css"></style></defs><path d="M512 512m-512 0a512 512 0 1 0 1024 0 512 512 0 1 0-1024 0Z" fill="#FFD93B"></path><path d="M1021.568 512c0 282.88-229.28 512-512 512-160.96 0-304.64-74.24-398.56-190.56 87.84 71.04 199.68 113.44 321.44 113.44 282.72 0 512-229.12 512-512 0-121.76-42.4-233.6-113.44-321.44 116.16 93.92 190.56 237.6 190.56 398.56z" fill="#F4C534"></path><path d="M479.648 478.112c0 101.472-82.08 183.552-183.552 183.552s-183.552-82.08-183.552-183.552c0-101.184 82.08-183.552 183.552-183.552s183.552 82.368 183.552 183.552z" fill="#F4C534"></path><path d="M444.512 478.112c0 82.08-66.336 148.416-148.416 148.416S147.68 560.192 147.68 478.112c0-81.792 66.336-148.416 148.416-148.416 82.08 0.032 148.416 66.624 148.416 148.416z" fill="#FFFFFF"></path><path d="M377.056 478.112c0 44.704-35.968 80.96-80.96 80.96-44.96 0-80.96-36.256-80.96-80.96s35.968-80.96 80.96-80.96c44.992 0.032 80.96 36.288 80.96 80.96z" fill="#3E4347"></path><path d="M342.603782 466.877224a24.864 16.128 45.001 1 0-35.162392-35.16362 24.864 16.128 45.001 1 0 35.162392 35.16362Z" fill="#FFFFFF"></path><path d="M906.56 478.112c0 101.472-82.08 183.552-183.552 183.552s-183.552-82.08-183.552-183.552c0-101.184 82.08-183.552 183.552-183.552s183.552 82.368 183.552 183.552z" fill="#F4C534"></path><path d="M871.424 478.112c0 82.08-66.336 148.416-148.416 148.416s-148.416-66.336-148.416-148.416c0-81.792 66.336-148.416 148.416-148.416 82.08 0.032 148.416 66.624 148.416 148.416z" fill="#FFFFFF"></path><path d="M803.968 478.112c0 44.704-35.968 80.96-80.96 80.96-44.96 0-80.96-36.256-80.96-80.96s35.968-80.96 80.96-80.96c44.96 0.032 80.96 36.288 80.96 80.96z" fill="#3E4347"></path><path d="M769.499782 466.900052a24.864 16.128 45.001 1 0-35.162392-35.163619 24.864 16.128 45.001 1 0 35.162392 35.163619Z" fill="#FFFFFF"></path><path d="M414.976 142.016s-107.008 3.008-200.992 94.016c0-0.032 40.992-164.032 200.992-94.016zM604.128 142.016s107.008 3.008 200.992 94.016c0-0.032-40.992-164.032-200.992-94.016z" fill="#3E4347"></path><path d="M318.72 794.624a193.28 67.616 0 1 0 386.56 0 193.28 67.616 0 1 0-386.56 0Z" fill="#3E4347"></path></svg>