<svg xmlns="http://www.w3.org/2000/svg" xmlns:xlink="http://www.w3.org/1999/xlink" class="icon" viewBox="0 0 1024 1024" width="200" height="200"><defs><style type="text/css"></style></defs><path d="M332.894815 489.642667l1.668741-0.796445 130.635851 295.708445a31.914667 31.914667 0 0 0 58.443852-25.675852l-139.150222-315.050667c10.581333-16.156444 26.756741-35.669333 49.227852-48.981333 44.790519-26.605037 124.207407-22.755556 160.104296-18.962963 15.530667 1.630815 37.300148-3.489185 44.942222-5.783704s133.082074-27.306667 186.88-248.32c0.758519-10.865778 6.33363-36.617481-20.385185-45.568-7.452444-1.005037-15.511704-0.474074-23.969185 7.111111-8.438519 7.566222-56.794074 59.904-107.861333 53.741037-51.086222-6.181926-72.116148-9.40563-108.164741-21.010963-35.991704-11.529481-95.194074-28.823704-139.927704-28.823703-44.695704 0-82.375111 4.987259-140.306963 26.358518-45.700741 19.626667-98.664296 45.586963-85.655703 75.017482l133.518222 301.037037z" fill="#515151"></path><path d="M512 976.592593c-248.64237 0-436.148148-84.821333-436.148148-197.271704 0-65.592889 64.568889-124.055704 177.152-160.369778a28.501333 28.501333 0 0 1 35.802074 18.337185 28.48237 28.48237 0 0 1-18.337185 35.821037C185.514667 700.491852 132.740741 741.205333 132.740741 779.320889c0 66.408296 155.761778 140.382815 379.259259 140.382815s379.259259-73.974519 379.259259-140.382815-155.761778-140.382815-379.259259-140.382815a28.444444 28.444444 0 1 1 0-56.888889c248.64237 0 436.148148 84.821333 436.148148 197.271704S760.64237 976.592593 512 976.592593z" fill="#515151"></path></svg>