<svg xmlns="http://www.w3.org/2000/svg" xmlns:xlink="http://www.w3.org/1999/xlink" class="icon" viewBox="0 0 1024 1024" width="200" height="200"><defs><style type="text/css"></style></defs><path d="M510.835 815.344c-9.933 0-19.286-3.507-26.297-10.519l-264.745-264.745c-7.012-7.011-10.521-16.365-10.521-26.299s3.505-19.285 10.521-26.297l53.182-53.183c7.013-7.012 16.366-11.104 26.301-11.104s19.283 4.091 26.297 11.104l110.458 110.456v-293.38c0-20.454 16.949-37.403 37.403-37.403h74.808c20.454 0 37.401 16.949 37.401 37.402v293.379l110.457-110.457c7.013-7.012 16.362-10.519 26.298-10.52 9.936 0 19.287 3.504 26.3 10.519l53.182 53.183c7.013 7.012 10.519 16.362 10.519 26.297s-3.504 19.287-10.519 26.3l-264.742 264.745c-7.014 7.012-16.365 10.519-26.302 10.519zM510.835 962.034c247.794 0 448.837-201.042 448.837-448.835 0-247.796-201.042-448.836-448.837-448.836-247.793 0-448.835 201.040-448.835 448.836 0 247.793 201.042 448.835 448.835 448.835z" fill="#6EC1E4"></path></svg>