<svg xmlns="http://www.w3.org/2000/svg" xmlns:xlink="http://www.w3.org/1999/xlink" class="icon" viewBox="0 0 1024 1024" width="200" height="200"><defs><style type="text/css"></style></defs><path d="M336.810667 367.4624a44.458667 44.458667 0 1 1-88.917334 0 44.458667 44.458667 0 0 1 88.917334 0zM763.511467 159.044267a89.770667 89.770667 0 1 1-179.541334 0 89.770667 89.770667 0 0 1 179.541334 0zM544.580267 187.682133a55.995733 55.995733 0 1 1-111.991467 0 55.995733 55.995733 0 0 1 111.991467 0zM746.530133 758.203733a149.265067 149.265067 0 0 1-5.2224-148.616533l-0.341333-0.529067a208.896 208.896 0 0 0 35.191467-116.292266c0-115.985067-94.020267-209.988267-209.988267-209.988267S356.181333 376.797867 356.181333 492.765867c0 22.647467 3.6864 44.424533 10.325334 64.8704a182.391467 182.391467 0 0 0 21.179733 51.319466l-0.989867 0.5632 152.098134 263.458134a120.183467 120.183467 0 0 0 234.069333-38.485334 119.6544 119.6544 0 0 0-27.067733-75.946666l0.733866-0.375467zM414.754133 273.339733a44.458667 44.458667 0 1 1-88.917333 0 44.458667 44.458667 0 0 1 88.917333 0z"></path></svg>