<svg xmlns="http://www.w3.org/2000/svg" xmlns:xlink="http://www.w3.org/1999/xlink" class="icon" viewBox="0 0 1024 1024" width="200" height="200"><defs><style type="text/css"></style></defs><path d="M102.4 742.4C102.4 839.68 184.32 921.6 281.6 921.6L204.8 998.4V1024h614.4v-25.6L742.4 921.6c97.28 0 179.2-81.92 179.2-179.2V204.8C921.6 25.6 737.28 0 512 0S102.4 25.6 102.4 204.8v537.6zM512 819.2c-56.32 0-102.4-46.08-102.4-102.4s46.08-102.4 102.4-102.4 102.4 46.08 102.4 102.4-46.08 102.4-102.4 102.4z m307.2-358.4H204.8V204.8h614.4v256z"></path></svg>