<svg xmlns="http://www.w3.org/2000/svg" xmlns:xlink="http://www.w3.org/1999/xlink" class="icon" viewBox="0 0 1137 1024" width="222.0703125" height="200"><defs><style type="text/css"></style></defs><path d="M233.244444 523.946667C106.268444 522.353778 2.275556 624.867556 0.568889 750.023111c1.706667 125.326222 105.699556 227.726222 232.675555 226.190222 126.805333 1.536 230.968889-100.864 232.618667-226.190222 1.649778-125.326222-104.163556-227.669333-232.675555-226.076444z m1.649778 367.672889a143.815111 143.815111 0 0 1-146.488889-141.596445c-1.649778-79.701333 66.730667-143.189333 146.488889-141.539555A143.701333 143.701333 0 0 1 381.155556 750.023111c1.649778 79.758222-66.616889 141.596444-146.318223 141.596445z m595.569778-785.635556c0 58.88-46.250667 105.813333-105.927111 107.349333a105.130667 105.130667 0 0 1-107.406222-105.813333c0-58.88 46.307556-105.984 105.870222-107.52h1.536a105.813333 105.813333 0 0 1 105.927111 105.984zM905.102222 523.946667a229.205333 229.205333 0 0 0-232.789333 226.076444c1.706667 125.326222 105.813333 227.726222 231.139555 226.190222 128.455111 1.536 232.618667-100.864 234.268445-226.190222 1.592889-125.326222-104.163556-227.669333-232.675556-226.076444z m-1.706666 367.672889a143.815111 143.815111 0 0 1-146.432-141.596445 143.815111 143.815111 0 0 1 146.488888-141.539555 144.156444 144.156444 0 0 1 147.968 141.539555c-1.649778 78.108444-68.266667 141.596444-147.968 141.596445z" fill="#6EC1E4"></path><path d="M503.239111 815.160889v-208.327111L347.079111 455.566222a62.805333 62.805333 0 0 1 0-87.779555L506.538667 211.626667a62.805333 62.805333 0 0 1 87.779555 0l113.948445 112.241777h160.995555c34.247111 0 61.838222 27.534222 61.838222 60.188445a61.838222 61.838222 0 0 1-61.838222 61.838222h-185.457778c-16.384 0-32.142222-6.485333-43.918222-17.92L550.456889 341.731556l-71.68 69.859555a16093.696 16093.696 0 0 1 130.275555 126.976c11.434667 11.776 17.863111 27.534222 17.863112 43.975111v234.268445c0 34.133333-27.648 61.838222-61.838223 61.838222-32.426667-1.706667-60.188444-29.354667-61.838222-63.488z" fill="#6EC1E4"></path></svg>