<svg xmlns="http://www.w3.org/2000/svg" xmlns:xlink="http://www.w3.org/1999/xlink" class="icon" viewBox="0 0 1024 1024" width="200" height="200"><defs><style type="text/css"></style></defs><path d="M706.335892 885.391084c0-0.937805-0.806788-9.012579-1.792862-17.938963-2.085926-18.862976-10.084848-102.955098-18.962963-199.286949-9.809024-106.489104-17.625212-182.392673-18.914693-183.682155-0.651636-0.651636-4.716606-1.489455-9.033266-1.865266-4.323556-0.375811-11.412256-1.720458-15.763394-2.989253-4.489051-1.310168-15.553077-2.847892-25.603448-3.558141-20.380013-1.448081-36.557145-5.12-50.113939-11.384673-5.026909-2.320377-9.702141-3.871892-10.391704-3.447812-0.710249 0.437872-1.630815 8.967758-2.120404 19.621495-0.479246 10.364121-1.448081 19.573226-2.161778 20.466209-0.837818 1.048135-1.182599 10.008997-0.979178 25.541387l0.310303 23.924364 14.449777 38.922343c7.947205 21.404013 17.280431 46.311003 20.742034 55.337374 6.799084 17.756229 7.502438 22.955529 5.516498 40.749683-0.848162 7.567946-0.396498 11.008862 4.051179 31.016512 10.395152 46.752323 22.296997 93.018505 24.582895 95.559542 1.623919 1.806653 2.258316 4.392512 2.258317 9.233239v6.723233l7.41969 6.275016c5.068283 4.28563 9.40563 6.802532 13.684364 7.936862 10.833024 2.878923 29.278815 6.888727 31.588848 6.868041 2.93064-0.024135 12.753455 5.78198 14.129132 8.354047 0.641293 1.203286 0.627502 2.847892-0.034478 4.033939-2.447946 4.368377-8.174761 4.802801-59.77126 4.547664-27.606626-0.137912-51.837845-0.041374-53.844471 0.213764l-3.647785 0.468902-0.896431-17.028741c-0.927461-17.521778-1.230869-19.193966-13.84641-76.020794-3.789145-17.056323-7.285226-34.047138-7.76792-37.753535-0.91367-6.974923-3.427125-13.063758-6.419824-15.54963-2.296242-1.903192-8.736754-15.97371-14.853172-32.443906-4.354586-11.732902-5.34066-13.425778-7.985131-13.739528-4.585589-0.544754-9.364256 5.185508-10.850263 13.018936-1.16536 6.137104-2.185912 7.481751-19.3767 25.493117-15.446195 16.184027-36.546801 37.043286-61.26761 60.571152-3.206465 3.047865-6.840458 7.533468-8.08167 9.964175-1.241212 2.437603-3.406438 5.464781-4.809697 6.733576-1.403259 1.272242-3.947744 4.689024-5.654411 7.595528-1.703219 2.909953-4.854519 6.195717-6.999057 7.302465-6.668067 3.430572-11.546721 7.712754-12.322478 10.812337-0.920566 3.658128 2.241077 19.390492 4.630411 23.034828 1.068822 1.634263 5.461333 4.002909 11.281239 6.088835 8.840189 3.168539 20.435178 7.981684 24.734599 10.267583 1.137778 0.606815 1.82734 2.734114 1.82734 5.65441 0 4.358034-0.296512 4.747636-4.261495 5.633724-2.341064 0.524067-14.287731 0.689562-26.551596 0.365468l-22.296996-0.593023-6.895623-4.689024a306.303569 306.303569 0 0 0-15.494465-9.664215c-5.495811-3.178882-9.850397-6.774949-12.060444-9.964175-1.903192-2.747906-4.096-5.378586-4.875206-5.854384-0.775758-0.47235-4.240808-4.013253-7.70241-7.867906-8.409212-9.364256-8.409212-12.150088 0-19.711138 3.465051-3.113374 8.66435-7.047327 11.557063-8.74365 2.896162-1.696323 5.26136-3.354721 5.261361-3.689158 0-0.33099-1.096404-1.992835-2.434155-3.696054-1.337751-1.699771-2.430707-3.596067-2.430707-4.209778 0-0.620606 3.571933-4.692471 7.936862-9.060848 7.440377-7.440377 81.344215-86.522828 94.966518-101.620795 11.753589-13.025832 17.573495-37.046734 21.714317-89.615515l0.703353-8.960862-6.050909-5.957818c-4.116687-4.051178-6.357764-7.405899-7.016296-10.498586-1.082613-5.102761-1.261899-22.100471-0.372364-34.953913l0.586128-8.516094-7.643798 0.296512c-10.557199 0.406842-12.170774 1.499798-12.622437 8.529885-0.334438 5.219987-0.655084 5.771636-3.365064 5.771637-3.147852 0-5.437199-3.199569-6.688755-9.343569-0.55165-2.723771-1.74804-3.57538-7.343838-5.1993-6.964579-2.027313-14.549764-7.623111-15.842694-11.698424-0.413737-1.303273-4.409751-4.775219-8.874666-7.716202-8.433347-5.550976-17.118384-13.842963-19.635286-18.749199-1.058478-2.061791-1.368781-13.329239-1.148122-41.35305 0.217212-27.217024-0.103434-39.284364-1.089508-41.122047-1.179152-2.192808-1.044687-2.696189 0.855057-3.189226 1.430842-0.379259 2.496215-2.085926 2.920296-4.695919 3.092687-19.04571 10.708902-32.685253 21.983246-39.380903 1.289481-0.765414 2.482424-3.916714 3.216808-8.516094 0.641293-4.009805 3.87534-16.873589 7.185239-28.582357 6.774949-23.96229 7.333495-24.793212 21.376431-31.661252 22.490074-11.001966 49.972579-10.05037 73.372876 2.541037 4.902788 2.637576 9.422869 4.792458 10.05037 4.792458 0.620606 0 2.596202-2.975461 4.378721-6.61635 2.903057-5.916444 3.10303-7.105939 1.861818-11.250209-2.634128-8.795367-2.889266-17.804498-0.792997-27.813495 1.117091-5.30963 2.106613-12.401778 2.2066-15.753051 0.403394-13.618855 12.629333-29.085737 26.089589-32.995555 5.147582-1.499798 9.640081-1.813549 18.359596-1.29293 9.895219 0.586128 12.674155 1.265347 19.445656 4.723502 12.939636 6.606007 20.055919 18.797468 21.593643 36.988121 0.420633 4.954505 1.365333 9.460795 2.103165 10.012445 0.737832 0.55165 3.699502 1.679084 6.58532 2.503111 2.878923 0.824027 6.357764 2.620337 7.729993 3.992566 2.251421 2.251421 2.310034 2.675502 0.610263 4.37872-1.703219 1.696323-2.830653 1.610128-11.629468-0.896431-5.357899-1.523933-10.560646-2.45829-11.557064-2.075582-3.640889 1.396364-3.523663 8.212687 0.324094 18.645764 2.010074 5.447542 3.32369 10.233104 2.920297 10.636498-0.406842 0.403394-2.013522 0.734384-3.575381 0.734384-1.558411 0-2.878923 0.41029-2.930639 0.91367a22.465939 22.465939 0 0 1-0.596472 2.734115c-0.275825 1.003313-1.034343 4.751084-1.675636 8.323016-0.644741 3.57538-1.810101 7.267987-2.592754 8.20924-1.868714 2.254869-10.391704 2.196256-16.93565-0.11033-7.785158-2.747906-9.743515-2.254869-17.028741 4.29942l-6.688754 6.016431 2.909953 5.182061c1.603232 2.847892 4.520081 8.060983 6.488781 11.581199 4.368377 7.823084 7.926519 24.431192 9.198761 42.939043 0.703354 10.177939 0.555098 14.067071-0.58268 15.559974-1.644606 2.161778-1.989387 24.634613-0.561994 36.626101l0.792997 6.654276 7.481751 3.120269c4.116687 1.713562 12.053549 5.868175 17.635555 9.229791 8.960862 5.388929 15.494465 8.423003 29.878734 13.867098 4.923475 1.861818 13.42233 0.137912 24.420849-4.964849 4.213226-1.948013 8.388525-3.547798 9.27806-3.547798 3.923609 0 4.533872-3.10303 3.127165-15.880619l-1.365333-12.422465 3.964983-4.092552c4.675232-4.82004 6.550842-5.037253 11.215731-1.303273l3.471946 2.775489-2.682397 4.775218c-2.441051 4.344242-2.606545 5.792323-1.841132 15.997846 0.813684 10.881293 0.937805 11.239865 3.95464 11.601885 1.713562 0.206869 3.496081 1.196391 3.961535 2.199704 0.465455 0.999865 1.475663 3.047865 2.251421 4.544215 1.758384 3.413333 1.82734 14.860067 0.106883 19.380148-0.710249 1.875609-2.354855 4.39596-3.647785 5.602694-3.013387 2.806519-2.999596 3.609859 0.672323 47.131582 3.79604 44.949118 14.77732 182.899502 21.879812 274.856081 2.972013 38.463785 5.67165 72.535057 6.002639 75.71394 0.534411 5.126896 0.334438 5.778532-1.775622 5.778532-1.303273 0-2.372094-0.768862-2.372095-1.710115z"></path></svg>